<svg xmlns="http://www.w3.org/2000/svg" width="49" height="20">
    <path style="opacity:1" fill="#cacaca"
          d="M34.5 2.5c-.28 6.07-2.95 7.4-8 4-1.13-5.34 1.2-7.17 7-5.5.56.38.89.88 1 1.5zm2 0c6.75-2.75 9.09-.75 7 6 .76-5.4-1.57-7.4-7-6zm-2 0h2a5 5 0 0 0 0 6h-3v3c-3.6-1.85-5.94-.85-7 3a20.52 20.52 0 0 0-6-3 7.78 7.78 0 0 0 6-1.5c-2.2-.2-4.2-.7-6-1.5 2.58.47 4.58-.2 6-2 5.05 3.4 7.72 2.07 8-4zm2 0c5.43-1.4 7.76.6 7 6 0 .67-.33 1-1 1a12.1 12.1 0 0 1-6-1 5 5 0 0 1 0-6zm-16 6c1.8.8 3.8 1.3 6 1.5a7.78 7.78 0 0 1-6 1.5 38.9 38.9 0 0 0-19 2 41.4 41.4 0 0 0-2-1v-2c6.87-3.86 13.87-4.52 21-2zm16 0a12.1 12.1 0 0 0 6 1v2c-4.35-.97-6.68.7-7 5h-1c.13-1.8-.2-3.46-1-5h3v-3zm-3 3a9.16 9.16 0 0 1 1 5c-2 2.46-4.33 2.62-7 .5a2.86 2.86 0 0 1-1-2.5c1.06-3.85 3.4-4.85 7-3zm9 0c2.63 2.04 2.63 4.2 0 6.5-2 .67-4 .67-6 0a2.26 2.26 0 0 1-1-1.5c.32-4.3 2.65-5.97 7-5z"/>
</svg>