<svg xmlns="http://www.w3.org/2000/svg" width="104" height="125"><path d="M32.5 1.5h7c-.34 1.98.32 3.32 2 4v21c-1.28 1.2-1.94 2.86-2 5 .06 2.14.72 3.8 2 5-.3 2.42.03 4.76 1 7a17.54 17.54 0 0 0 3-9c1.68-.68 2.34-2.02 2-4 1.68-.68 2.34-2.02 2-4h2c1.68-.68 2.34-2.02 2-4 1.8-1.42 2.47-3.42 2-6 1.76-1.05 2.42-2.72 2-5 1.68-.68 2.34-2.02 2-4 1.68-.68 2.34-2.02 2-4h9c0 1.33.67 2 2 2v11c-1.98 5.15-3.98 10.49-6 16h-3c-.73 2.78-1.4 5.61-2 8.5l1 4.5c.97-1.9 1.3-3.9 1-6h3a7.11 7.11 0 0 1 1-5 63.81 63.81 0 0 0 7-12c1.68-.68 2.34-2.02 2-4 1.68-.68 2.34-2.02 2-4 1.55-.32 2.21-1.32 2-3h8v3h3v10h-3v4c-1.68.68-2.34 2.02-2 4-1.84 1.78-2.51 4.11-2 7a121.58 121.58 0 0 1-10 18l1 2 4-4a53.04 53.04 0 0 1 7-12c1.33 0 2-.67 2-2h7c0 1.33.67 2 2 2v12c-1.68.68-2.34 2.02-2 4-1.76 1.05-2.42 2.72-2 5-1.68.68-2.34 2.02-2 4h-3v6c-1.68.68-2.34 2.02-2 4-1.68.68-2.34 2.02-2 4-1.76 1.05-2.42 2.72-2 5-1.8 1.42-2.47 3.42-2 6-1.68.68-2.34 2.02-2 4-1.33 0-2 .67-2 2-1.25.83-1.91 2.17-2 4 .09 1.83.75 3.17 2 4v9c-1.33 0-2 .67-2 2h-6c-1.78-1.84-4.11-2.51-7-2-3.53-1.92-7.53-2.59-12-2a32 32 0 0 0-11.5-2 32 32 0 0 0-11.5 2c-1.33 0-2 .67-2 2h-8c-1.05-1.76-2.72-2.42-5-2v-7c1.68.22 2.68-.45 3-2 1.33 0 2-.67 2-2 1.33 0 2-.67 2-2 1.33 0 2-.67 2-2 1.2-.47 1.86-1.47 2-3-.14-1.53-.8-2.53-2-3-.68-1.68-2.02-2.34-4-2 0-1.33-.67-2-2-2-.32-1.55-1.32-2.21-3-2 .42-2.28-.24-3.95-2-5 .34-1.98-.32-3.32-2-4 .34-1.98-.32-3.32-2-4 .34-1.98-.32-3.32-2-4 .55-3.51-.11-6.51-2-9v-10c1.33 0 2-.67 2-2h6c0 1.33.67 2 2 2 .32 1.55 1.32 2.21 3 2 0 1.33.67 2 2 2-.34 1.98.32 3.32 2 4 .67 6.67 1.33 6.67 2 0 1.92-3.53 2.59-7.53 2-12 1.91-3.18 2.58-6.85 2-11a61.7 61.7 0 0 0 2-22c1.89-2.49 2.55-5.49 2-9 1.33 0 2-.67 2-2 1.33 0 2-.67 2-2Z"/></svg>