<svg xmlns="http://www.w3.org/2000/svg" width="50" height="60">
    <path d="M15.5-.5h3a14.17 14.17 0 0 1 2 8l-1 10a4.93 4.93 0 0 0 .5 3c.8-1.25 1.3-2.58 1.5-4a393.16 393.16 0 0 0 8-15.5c5.33-.5 7 1.66 5 6.5a65.14 65.14 0 0 1-4.5 10 4.25 4.25 0 0 0 0 4 42.5 42.5 0 0 1 5.5-11c.96-5.85 3.8-7.18 8.5-4 .27 4.45-.9 8.45-3.5 12a60.8 60.8 0 0 1-5 9c.86.8 1.69.46 2.5-1 .93-2.2 2.1-4.2 3.5-6 1.7-2.62 3.53-2.62 5.5 0 .67 2 .67 4 0 6a303.54 303.54 0 0 1-10 21v8a4.66 4.66 0 0 1-3 2 35.84 35.84 0 0 0-24.5-1c-3.5-.12-5-1.79-4.5-5A17.7 17.7 0 0 0 9.5 46a38.52 38.52 0 0 1-10-16.5v-5c4.38-2.59 7.55-1.25 9.5 4a125.7 125.7 0 0 0 3-22 9.1 9.1 0 0 1 3.5-7Z"/>
</svg>