<svg xmlns="http://www.w3.org/2000/svg" width="104" height="94"><path d="M43.5 1.5h8c0 1.33.67 2 2 2-.32 3.07.02 6.07 1 9a53.53 53.53 0 0 1 3-9h9c0 1.33.67 2 2 2-.34 1.98.32 3.32 2 4 .67 6.67 1.33 6.67 2 0 1.33 0 2-.67 2-2h8c-.42 2.28.24 3.95 2 5-.32 3.4.01 6.73 1 10 .98-4.32 3.65-6.32 8-6 0 1.33.67 2 2 2-.47 2.58.2 4.58 2 6a522.28 522.28 0 0 1-2 33c-1.84 1.78-2.51 4.11-2 7-1.68.68-2.34 2.02-2 4h-3v8h3v9c-1.68-.21-2.68.45-3 2h-6c-1.42-1.8-3.42-2.47-6-2-3.87-1.93-8.2-2.6-13-2v-3h-22v3c-1.33 0-2 .67-2 2h-9c-.68-1.68-2.02-2.34-4-2v-7c1.33 0 2-.67 2-2 1.33 0 2-.67 2-2 1.33 0 2-.67 2-2 1.33 0 2-.67 2-2 1.2-.47 1.86-1.47 2-3-.14-1.53-.8-2.53-2-3-.68-1.68-2.02-2.34-4-2 .21-1.68-.45-2.68-2-3 0-1.33-.67-2-2-2 .34-1.98-.32-3.32-2-4 0-1.33-.67-2-2-2 0-1.33-.67-2-2-2 0-1.33-.67-2-2-2 0-1.33-.67-2-2-2 0-1.33-.67-2-2-2-.32-1.55-1.32-2.21-3-2 0-1.33-.67-2-2-2-.68-1.68-2.02-2.34-4-2v-13c1.33 0 2-.67 2-2h7c.68 1.68 2.02 2.34 4 2 .68 1.68 2.02 2.34 4 2 0 1.33.67 2 2 2 0 1.33.67 2 2 2 .83 1.25 2.17 1.91 4 2 1.83-.09 3.17-.75 4-2a25.71 25.71 0 0 0 2-14h3v-7c1.68-.68 2.34-2.02 2-4 1.33 0 2-.67 2-2Z"/></svg>